<svg xmlns="http://www.w3.org/2000/svg" xmlns:xlink="http://www.w3.org/1999/xlink" width="500" zoomAndPan="magnify" viewBox="0 0 375 374.999991" height="500" preserveAspectRatio="xMidYMid meet" version="1.0"><defs><g/><clipPath id="ed82034b02"><path d="M 126 92.050781 L 248.949219 92.050781 L 248.949219 226.300781 L 126 226.300781 Z M 126 92.050781 " clip-rule="nonzero"/></clipPath></defs><g clip-path="url(#ed82034b02)"><path fill="#ffffff" d="M 127.492188 226.539062 L 128.96875 226.539062 L 128.96875 168.777344 L 152.625 157.546875 L 152.625 226.539062 L 169.132812 226.539062 L 169.132812 146.4375 L 155.585938 152.871094 L 155.585938 96.894531 L 192.792969 116.4375 L 192.792969 145.683594 L 179.242188 154.949219 L 179.242188 226.539062 L 195.746094 226.539062 L 195.746094 147.242188 L 219.402344 131.074219 L 219.402344 164.269531 L 205.855469 158.710938 L 205.855469 226.539062 L 222.363281 226.539062 L 222.363281 168.671875 L 246.019531 178.371094 L 246.019531 226.539062 L 248.976562 226.539062 L 248.976562 176.398438 L 222.363281 165.480469 L 222.363281 125.480469 L 195.746094 143.664062 L 195.746094 114.65625 L 152.625 92.011719 L 152.625 154.277344 L 126.011719 166.914062 L 126.011719 226.539062 Z M 219.402344 167.457031 L 219.402344 223.578125 L 208.8125 223.578125 L 208.8125 163.113281 Z M 192.792969 149.265625 L 192.792969 223.578125 L 182.199219 223.578125 L 182.199219 156.503906 Z M 155.585938 156.140625 L 166.175781 151.113281 L 166.175781 223.578125 L 155.585938 223.578125 L 155.585938 156.140625 " fill-opacity="1" fill-rule="evenodd"/></g><g fill="#ffffff" fill-opacity="1"><g transform="translate(69.654902, 257.585433)"><g><path d="M 7.265625 -11.703125 C 5.859375 -11.703125 4.742188 -11.226562 3.921875 -10.28125 C 3.109375 -9.34375 2.703125 -8.054688 2.703125 -6.421875 C 2.703125 -4.742188 3.09375 -3.445312 3.875 -2.53125 C 4.664062 -1.613281 5.789062 -1.15625 7.25 -1.15625 C 8.144531 -1.15625 9.164062 -1.316406 10.3125 -1.640625 L 10.3125 -0.328125 C 9.425781 0.00390625 8.328125 0.171875 7.015625 0.171875 C 5.128906 0.171875 3.671875 -0.398438 2.640625 -1.546875 C 1.609375 -2.691406 1.09375 -4.320312 1.09375 -6.4375 C 1.09375 -7.757812 1.335938 -8.921875 1.828125 -9.921875 C 2.328125 -10.921875 3.046875 -11.6875 3.984375 -12.21875 C 4.921875 -12.757812 6.019531 -13.03125 7.28125 -13.03125 C 8.632812 -13.03125 9.8125 -12.785156 10.8125 -12.296875 L 10.1875 -11.015625 C 9.21875 -11.472656 8.242188 -11.703125 7.265625 -11.703125 Z M 7.265625 -11.703125 "/></g></g></g><g fill="#ffffff" fill-opacity="1"><g transform="translate(84.73637, 257.585433)"><g><path d="M 9.84375 0 L 8.25 -4.09375 L 3.09375 -4.09375 L 1.515625 0 L 0 0 L 5.078125 -12.90625 L 6.34375 -12.90625 L 11.390625 0 Z M 7.78125 -5.4375 L 6.28125 -9.40625 C 6.09375 -9.914062 5.894531 -10.535156 5.6875 -11.265625 C 5.5625 -10.703125 5.378906 -10.082031 5.140625 -9.40625 L 3.625 -5.4375 Z M 7.78125 -5.4375 "/></g></g></g><g fill="#ffffff" fill-opacity="1"><g transform="translate(99.852994, 257.585433)"><g><path d="M 3.265625 -5.34375 L 3.265625 0 L 1.765625 0 L 1.765625 -12.84375 L 5.296875 -12.84375 C 6.867188 -12.84375 8.03125 -12.539062 8.78125 -11.9375 C 9.539062 -11.34375 9.921875 -10.4375 9.921875 -9.21875 C 9.921875 -7.519531 9.054688 -6.375 7.328125 -5.78125 L 10.8125 0 L 9.046875 0 L 5.9375 -5.34375 Z M 3.265625 -6.625 L 5.3125 -6.625 C 6.363281 -6.625 7.132812 -6.832031 7.625 -7.25 C 8.125 -7.675781 8.375 -8.304688 8.375 -9.140625 C 8.375 -9.992188 8.117188 -10.609375 7.609375 -10.984375 C 7.109375 -11.359375 6.304688 -11.546875 5.203125 -11.546875 L 3.265625 -11.546875 Z M 3.265625 -6.625 "/></g></g></g><g fill="#ffffff" fill-opacity="1"><g transform="translate(114.705945, 257.585433)"><g><path d="M 8.9375 0 L 1.765625 0 L 1.765625 -12.84375 L 8.9375 -12.84375 L 8.9375 -11.515625 L 3.265625 -11.515625 L 3.265625 -7.390625 L 8.59375 -7.390625 L 8.59375 -6.0625 L 3.265625 -6.0625 L 3.265625 -1.34375 L 8.9375 -1.34375 Z M 8.9375 0 "/></g></g></g><g fill="#ffffff" fill-opacity="1"><g transform="translate(128.442688, 257.585433)"><g><path d="M 5.71875 0 L 4.234375 0 L 4.234375 -11.515625 L 0.15625 -11.515625 L 0.15625 -12.84375 L 9.796875 -12.84375 L 9.796875 -11.515625 L 5.71875 -11.515625 Z M 5.71875 0 "/></g></g></g><g fill="#ffffff" fill-opacity="1"><g transform="translate(142.126697, 257.585433)"><g><path d="M 9.84375 0 L 8.25 -4.09375 L 3.09375 -4.09375 L 1.515625 0 L 0 0 L 5.078125 -12.90625 L 6.34375 -12.90625 L 11.390625 0 Z M 7.78125 -5.4375 L 6.28125 -9.40625 C 6.09375 -9.914062 5.894531 -10.535156 5.6875 -11.265625 C 5.5625 -10.703125 5.378906 -10.082031 5.140625 -9.40625 L 3.625 -5.4375 Z M 7.78125 -5.4375 "/></g></g></g><g fill="#ffffff" fill-opacity="1"><g transform="translate(157.243322, 257.585433)"><g><path d="M 11.046875 0 L 9.296875 0 L 4.609375 -6.234375 L 3.265625 -5.03125 L 3.265625 0 L 1.765625 0 L 1.765625 -12.84375 L 3.265625 -12.84375 L 3.265625 -6.484375 L 9.09375 -12.84375 L 10.859375 -12.84375 L 5.6875 -7.265625 Z M 11.046875 0 "/></g></g></g><g fill="#ffffff" fill-opacity="1"><g transform="translate(172.017168, 257.585433)"><g><path d="M 8.9375 0 L 1.765625 0 L 1.765625 -12.84375 L 8.9375 -12.84375 L 8.9375 -11.515625 L 3.265625 -11.515625 L 3.265625 -7.390625 L 8.59375 -7.390625 L 8.59375 -6.0625 L 3.265625 -6.0625 L 3.265625 -1.34375 L 8.9375 -1.34375 Z M 8.9375 0 "/></g></g></g><g fill="#ffffff" fill-opacity="1"><g transform="translate(185.753912, 257.585433)"><g><path d="M 3.265625 -5.34375 L 3.265625 0 L 1.765625 0 L 1.765625 -12.84375 L 5.296875 -12.84375 C 6.867188 -12.84375 8.03125 -12.539062 8.78125 -11.9375 C 9.539062 -11.34375 9.921875 -10.4375 9.921875 -9.21875 C 9.921875 -7.519531 9.054688 -6.375 7.328125 -5.78125 L 10.8125 0 L 9.046875 0 L 5.9375 -5.34375 Z M 3.265625 -6.625 L 5.3125 -6.625 C 6.363281 -6.625 7.132812 -6.832031 7.625 -7.25 C 8.125 -7.675781 8.375 -8.304688 8.375 -9.140625 C 8.375 -9.992188 8.117188 -10.609375 7.609375 -10.984375 C 7.109375 -11.359375 6.304688 -11.546875 5.203125 -11.546875 L 3.265625 -11.546875 Z M 3.265625 -6.625 "/></g></g></g><g fill="#ffffff" fill-opacity="1"><g transform="translate(200.606866, 257.585433)"><g/></g></g><g fill="#ffffff" fill-opacity="1"><g transform="translate(209.008648, 257.585433)"><g><path d="M 9.015625 -3.421875 C 9.015625 -2.285156 8.601562 -1.398438 7.78125 -0.765625 C 6.96875 -0.140625 5.859375 0.171875 4.453125 0.171875 C 2.921875 0.171875 1.75 -0.0195312 0.9375 -0.40625 L 0.9375 -1.859375 C 1.457031 -1.628906 2.03125 -1.453125 2.65625 -1.328125 C 3.28125 -1.203125 3.894531 -1.140625 4.5 -1.140625 C 5.5 -1.140625 6.25 -1.328125 6.75 -1.703125 C 7.25 -2.078125 7.5 -2.601562 7.5 -3.28125 C 7.5 -3.726562 7.410156 -4.09375 7.234375 -4.375 C 7.054688 -4.65625 6.757812 -4.914062 6.34375 -5.15625 C 5.925781 -5.394531 5.289062 -5.671875 4.4375 -5.984375 C 3.238281 -6.410156 2.378906 -6.914062 1.859375 -7.5 C 1.347656 -8.082031 1.09375 -8.847656 1.09375 -9.796875 C 1.09375 -10.785156 1.460938 -11.570312 2.203125 -12.15625 C 2.953125 -12.738281 3.941406 -13.03125 5.171875 -13.03125 C 6.441406 -13.03125 7.613281 -12.796875 8.6875 -12.328125 L 8.234375 -11.03125 C 7.171875 -11.476562 6.140625 -11.703125 5.140625 -11.703125 C 4.347656 -11.703125 3.726562 -11.53125 3.28125 -11.1875 C 2.832031 -10.84375 2.609375 -10.375 2.609375 -9.78125 C 2.609375 -9.332031 2.691406 -8.960938 2.859375 -8.671875 C 3.023438 -8.390625 3.300781 -8.128906 3.6875 -7.890625 C 4.070312 -7.660156 4.664062 -7.398438 5.46875 -7.109375 C 6.820312 -6.628906 7.75 -6.113281 8.25 -5.5625 C 8.757812 -5.007812 9.015625 -4.296875 9.015625 -3.421875 Z M 9.015625 -3.421875 "/></g></g></g><g fill="#ffffff" fill-opacity="1"><g transform="translate(222.613555, 257.585433)"><g><path d="M 8.9375 0 L 1.765625 0 L 1.765625 -12.84375 L 8.9375 -12.84375 L 8.9375 -11.515625 L 3.265625 -11.515625 L 3.265625 -7.390625 L 8.59375 -7.390625 L 8.59375 -6.0625 L 3.265625 -6.0625 L 3.265625 -1.34375 L 8.9375 -1.34375 Z M 8.9375 0 "/></g></g></g><g fill="#ffffff" fill-opacity="1"><g transform="translate(236.350298, 257.585433)"><g><path d="M 3.265625 -5.34375 L 3.265625 0 L 1.765625 0 L 1.765625 -12.84375 L 5.296875 -12.84375 C 6.867188 -12.84375 8.03125 -12.539062 8.78125 -11.9375 C 9.539062 -11.34375 9.921875 -10.4375 9.921875 -9.21875 C 9.921875 -7.519531 9.054688 -6.375 7.328125 -5.78125 L 10.8125 0 L 9.046875 0 L 5.9375 -5.34375 Z M 3.265625 -6.625 L 5.3125 -6.625 C 6.363281 -6.625 7.132812 -6.832031 7.625 -7.25 C 8.125 -7.675781 8.375 -8.304688 8.375 -9.140625 C 8.375 -9.992188 8.117188 -10.609375 7.609375 -10.984375 C 7.109375 -11.359375 6.304688 -11.546875 5.203125 -11.546875 L 3.265625 -11.546875 Z M 3.265625 -6.625 "/></g></g></g><g fill="#ffffff" fill-opacity="1"><g transform="translate(251.203252, 257.585433)"><g><path d="M 9.109375 -12.84375 L 10.71875 -12.84375 L 6.078125 0 L 4.609375 0 L 0 -12.84375 L 1.578125 -12.84375 L 4.53125 -4.53125 C 4.875 -3.582031 5.144531 -2.65625 5.34375 -1.75 C 5.550781 -2.695312 5.828125 -3.644531 6.171875 -4.59375 Z M 9.109375 -12.84375 "/></g></g></g><g fill="#ffffff" fill-opacity="1"><g transform="translate(265.643109, 257.585433)"><g><path d="M 1.765625 0 L 1.765625 -12.84375 L 3.265625 -12.84375 L 3.265625 0 Z M 1.765625 0 "/></g></g></g><g fill="#ffffff" fill-opacity="1"><g transform="translate(274.387653, 257.585433)"><g><path d="M 7.265625 -11.703125 C 5.859375 -11.703125 4.742188 -11.226562 3.921875 -10.28125 C 3.109375 -9.34375 2.703125 -8.054688 2.703125 -6.421875 C 2.703125 -4.742188 3.09375 -3.445312 3.875 -2.53125 C 4.664062 -1.613281 5.789062 -1.15625 7.25 -1.15625 C 8.144531 -1.15625 9.164062 -1.316406 10.3125 -1.640625 L 10.3125 -0.328125 C 9.425781 0.00390625 8.328125 0.171875 7.015625 0.171875 C 5.128906 0.171875 3.671875 -0.398438 2.640625 -1.546875 C 1.609375 -2.691406 1.09375 -4.320312 1.09375 -6.4375 C 1.09375 -7.757812 1.335938 -8.921875 1.828125 -9.921875 C 2.328125 -10.921875 3.046875 -11.6875 3.984375 -12.21875 C 4.921875 -12.757812 6.019531 -13.03125 7.28125 -13.03125 C 8.632812 -13.03125 9.8125 -12.785156 10.8125 -12.296875 L 10.1875 -11.015625 C 9.21875 -11.472656 8.242188 -11.703125 7.265625 -11.703125 Z M 7.265625 -11.703125 "/></g></g></g><g fill="#ffffff" fill-opacity="1"><g transform="translate(289.469111, 257.585433)"><g><path d="M 8.9375 0 L 1.765625 0 L 1.765625 -12.84375 L 8.9375 -12.84375 L 8.9375 -11.515625 L 3.265625 -11.515625 L 3.265625 -7.390625 L 8.59375 -7.390625 L 8.59375 -6.0625 L 3.265625 -6.0625 L 3.265625 -1.34375 L 8.9375 -1.34375 Z M 8.9375 0 "/></g></g></g><g fill="#ffffff" fill-opacity="1"><g transform="translate(303.205842, 257.585433)"><g><path d="M 9.015625 -3.421875 C 9.015625 -2.285156 8.601562 -1.398438 7.78125 -0.765625 C 6.96875 -0.140625 5.859375 0.171875 4.453125 0.171875 C 2.921875 0.171875 1.75 -0.0195312 0.9375 -0.40625 L 0.9375 -1.859375 C 1.457031 -1.628906 2.03125 -1.453125 2.65625 -1.328125 C 3.28125 -1.203125 3.894531 -1.140625 4.5 -1.140625 C 5.5 -1.140625 6.25 -1.328125 6.75 -1.703125 C 7.25 -2.078125 7.5 -2.601562 7.5 -3.28125 C 7.5 -3.726562 7.410156 -4.09375 7.234375 -4.375 C 7.054688 -4.65625 6.757812 -4.914062 6.34375 -5.15625 C 5.925781 -5.394531 5.289062 -5.671875 4.4375 -5.984375 C 3.238281 -6.410156 2.378906 -6.914062 1.859375 -7.5 C 1.347656 -8.082031 1.09375 -8.847656 1.09375 -9.796875 C 1.09375 -10.785156 1.460938 -11.570312 2.203125 -12.15625 C 2.953125 -12.738281 3.941406 -13.03125 5.171875 -13.03125 C 6.441406 -13.03125 7.613281 -12.796875 8.6875 -12.328125 L 8.234375 -11.03125 C 7.171875 -11.476562 6.140625 -11.703125 5.140625 -11.703125 C 4.347656 -11.703125 3.726562 -11.53125 3.28125 -11.1875 C 2.832031 -10.84375 2.609375 -10.375 2.609375 -9.78125 C 2.609375 -9.332031 2.691406 -8.960938 2.859375 -8.671875 C 3.023438 -8.390625 3.300781 -8.128906 3.6875 -7.890625 C 4.070312 -7.660156 4.664062 -7.398438 5.46875 -7.109375 C 6.820312 -6.628906 7.75 -6.113281 8.25 -5.5625 C 8.757812 -5.007812 9.015625 -4.296875 9.015625 -3.421875 Z M 9.015625 -3.421875 "/></g></g></g><g fill="#ffffff" fill-opacity="1"><g transform="translate(151.061692, 280.485685)"><g><path d="M 7.015625 -6.453125 C 7.015625 -5.523438 6.703125 -4.8125 6.078125 -4.3125 C 5.453125 -3.820312 4.550781 -3.578125 3.375 -3.578125 L 2.3125 -3.578125 L 2.3125 0 L 1.25 0 L 1.25 -9.109375 L 3.609375 -9.109375 C 5.878906 -9.109375 7.015625 -8.222656 7.015625 -6.453125 Z M 2.3125 -4.484375 L 3.265625 -4.484375 C 4.203125 -4.484375 4.878906 -4.632812 5.296875 -4.9375 C 5.710938 -5.238281 5.921875 -5.726562 5.921875 -6.40625 C 5.921875 -7 5.722656 -7.441406 5.328125 -7.734375 C 4.941406 -8.035156 4.332031 -8.1875 3.5 -8.1875 L 2.3125 -8.1875 Z M 2.3125 -4.484375 "/></g></g></g><g fill="#ffffff" fill-opacity="1"><g transform="translate(168.410241, 280.485685)"><g><path d="M 6.96875 0 L 5.84375 -2.890625 L 2.1875 -2.890625 L 1.078125 0 L 0 0 L 3.59375 -9.140625 L 4.484375 -9.140625 L 8.0625 0 Z M 5.515625 -3.84375 L 4.453125 -6.671875 C 4.316406 -7.023438 4.175781 -7.460938 4.03125 -7.984375 C 3.9375 -7.585938 3.804688 -7.148438 3.640625 -6.671875 L 2.5625 -3.84375 Z M 5.515625 -3.84375 "/></g></g></g><g fill="#ffffff" fill-opacity="1"><g transform="translate(186.151003, 280.485685)"><g><path d="M 2.3125 -3.78125 L 2.3125 0 L 1.25 0 L 1.25 -9.109375 L 3.75 -9.109375 C 4.863281 -9.109375 5.6875 -8.890625 6.21875 -8.453125 C 6.75 -8.023438 7.015625 -7.382812 7.015625 -6.53125 C 7.015625 -5.320312 6.40625 -4.507812 5.1875 -4.09375 L 7.65625 0 L 6.40625 0 L 4.203125 -3.78125 Z M 2.3125 -4.6875 L 3.765625 -4.6875 C 4.503906 -4.6875 5.046875 -4.832031 5.390625 -5.125 C 5.742188 -5.425781 5.921875 -5.875 5.921875 -6.46875 C 5.921875 -7.070312 5.742188 -7.503906 5.390625 -7.765625 C 5.035156 -8.035156 4.46875 -8.171875 3.6875 -8.171875 L 2.3125 -8.171875 Z M 2.3125 -4.6875 "/></g></g></g><g fill="#ffffff" fill-opacity="1"><g transform="translate(203.704997, 280.485685)"><g><path d="M 1.25 0 L 1.25 -9.109375 L 2.3125 -9.109375 L 2.3125 0 Z M 1.25 0 "/></g></g></g><g fill="#ffffff" fill-opacity="1"><g transform="translate(216.932209, 280.485685)"><g><path d="M 6.390625 -2.421875 C 6.390625 -1.617188 6.097656 -0.992188 5.515625 -0.546875 C 4.929688 -0.0976562 4.144531 0.125 3.15625 0.125 C 2.070312 0.125 1.238281 -0.015625 0.65625 -0.296875 L 0.65625 -1.3125 C 1.03125 -1.15625 1.4375 -1.03125 1.875 -0.9375 C 2.320312 -0.84375 2.757812 -0.796875 3.1875 -0.796875 C 3.894531 -0.796875 4.425781 -0.929688 4.78125 -1.203125 C 5.132812 -1.472656 5.3125 -1.847656 5.3125 -2.328125 C 5.3125 -2.640625 5.25 -2.894531 5.125 -3.09375 C 5 -3.300781 4.785156 -3.488281 4.484375 -3.65625 C 4.191406 -3.820312 3.742188 -4.015625 3.140625 -4.234375 C 2.296875 -4.535156 1.691406 -4.894531 1.328125 -5.3125 C 0.960938 -5.726562 0.78125 -6.269531 0.78125 -6.9375 C 0.78125 -7.632812 1.039062 -8.191406 1.5625 -8.609375 C 2.09375 -9.023438 2.789062 -9.234375 3.65625 -9.234375 C 4.5625 -9.234375 5.394531 -9.066406 6.15625 -8.734375 L 5.828125 -7.8125 C 5.078125 -8.125 4.347656 -8.28125 3.640625 -8.28125 C 3.078125 -8.28125 2.632812 -8.160156 2.3125 -7.921875 C 2 -7.679688 1.84375 -7.347656 1.84375 -6.921875 C 1.84375 -6.609375 1.898438 -6.347656 2.015625 -6.140625 C 2.140625 -5.941406 2.335938 -5.757812 2.609375 -5.59375 C 2.890625 -5.425781 3.3125 -5.238281 3.875 -5.03125 C 4.832031 -4.695312 5.488281 -4.332031 5.84375 -3.9375 C 6.207031 -3.550781 6.390625 -3.046875 6.390625 -2.421875 Z M 6.390625 -2.421875 "/></g></g></g></svg>