<svg xmlns="http://www.w3.org/2000/svg" xmlns:xlink="http://www.w3.org/1999/xlink" width="500" zoomAndPan="magnify" viewBox="0 0 375 374.999991" height="500" preserveAspectRatio="xMidYMid meet" version="1.0"><defs><clipPath id="4213b1309a"><path d="M 80.550781 62.679688 L 291.449219 62.679688 L 291.449219 273.578125 L 80.550781 273.578125 Z M 80.550781 62.679688 " clip-rule="nonzero"/></clipPath><clipPath id="ae852165b7"><path d="M 186 62.679688 C 127.761719 62.679688 80.550781 109.890625 80.550781 168.128906 C 80.550781 226.367188 127.761719 273.578125 186 273.578125 C 244.238281 273.578125 291.449219 226.367188 291.449219 168.128906 C 291.449219 109.890625 244.238281 62.679688 186 62.679688 Z M 186 62.679688 " clip-rule="nonzero"/></clipPath><clipPath id="bf0bf3e382"><path d="M 126 92.050781 L 248.949219 92.050781 L 248.949219 226.300781 L 126 226.300781 Z M 126 92.050781 " clip-rule="nonzero"/></clipPath></defs><g clip-path="url(#4213b1309a)"><g clip-path="url(#ae852165b7)"><path fill="#ffffff" d="M 80.550781 62.679688 L 291.449219 62.679688 L 291.449219 273.578125 L 80.550781 273.578125 Z M 80.550781 62.679688 " fill-opacity="1" fill-rule="nonzero"/></g></g><g clip-path="url(#bf0bf3e382)"><path fill="#202020" d="M 127.492188 226.539062 L 128.96875 226.539062 L 128.96875 168.777344 L 152.625 157.546875 L 152.625 226.539062 L 169.132812 226.539062 L 169.132812 146.4375 L 155.585938 152.871094 L 155.585938 96.894531 L 192.792969 116.4375 L 192.792969 145.683594 L 179.242188 154.949219 L 179.242188 226.539062 L 195.746094 226.539062 L 195.746094 147.242188 L 219.402344 131.074219 L 219.402344 164.269531 L 205.855469 158.710938 L 205.855469 226.539062 L 222.363281 226.539062 L 222.363281 168.671875 L 246.019531 178.371094 L 246.019531 226.539062 L 248.976562 226.539062 L 248.976562 176.398438 L 222.363281 165.480469 L 222.363281 125.480469 L 195.746094 143.664062 L 195.746094 114.65625 L 152.625 92.011719 L 152.625 154.277344 L 126.011719 166.914062 L 126.011719 226.539062 Z M 219.402344 167.457031 L 219.402344 223.578125 L 208.8125 223.578125 L 208.8125 163.113281 Z M 192.792969 149.265625 L 192.792969 223.578125 L 182.199219 223.578125 L 182.199219 156.503906 Z M 155.585938 156.140625 L 166.175781 151.113281 L 166.175781 223.578125 L 155.585938 223.578125 L 155.585938 156.140625 " fill-opacity="1" fill-rule="evenodd"/></g></svg>